<svg width="112" height="23" viewBox="0 0 112 23" fill="none" xmlns="http://www.w3.org/2000/svg">
<g clip-path="url(#clip0_497_13407)">
<path d="M6.05308 9.25307C4.63793 9.25307 3.88756 10.0881 3.88756 11.5716V17.9825H0V5.4165H2.18282L3.54697 6.86626C4.19536 5.92829 5.16702 5.4165 6.48018 5.4165H7.65673V9.25307H6.05399H6.05308Z" fill="black"/>
<path d="M8.59692 5.4165H12.4845V12.4759C12.4845 13.789 13.3369 14.6924 14.599 14.6924C15.8612 14.6924 16.6962 13.789 16.6962 12.4759V5.4165H20.5838V17.9835H18.401L17.0714 16.5683C16.1681 17.6429 14.8886 18.273 13.3888 18.273C10.5585 18.273 8.59784 16.2095 8.59784 13.1916V5.4165H8.59692Z" fill="black"/>
<path d="M33.8105 17.9835H29.9229V10.9751C29.9229 9.62829 29.0533 8.70762 27.7574 8.70762C26.4616 8.70762 25.5919 9.62829 25.5919 10.9751V17.9835H21.7043V5.41654H23.8872L25.234 6.84899C26.1374 5.75803 27.4332 5.12695 28.9686 5.12695C31.8335 5.12695 33.8114 7.22418 33.8114 10.2767V17.9835H33.8105Z" fill="black"/>
<path d="M33.3857 5.4165H37.4436L39.3532 12.5442L41.6553 5.4165H44.4856L46.7878 12.5778L48.6974 5.4165H52.432L48.4761 17.9835H45.083L42.8492 11.078L40.5981 17.9835H37.4099L33.3857 5.4165Z" fill="black"/>
<path d="M57.737 5.12695C61.0444 5.12695 63.0397 6.95189 63.0397 9.98617V17.9835H60.8404L59.6985 16.7559C58.8461 17.7449 57.6186 18.2731 56.1351 18.2731C53.4924 18.2731 51.6338 16.6366 51.6338 14.3172C51.6338 11.8448 53.4414 10.4124 56.5786 10.4124H59.2559V10.0035C59.2559 8.92891 58.6594 8.34974 57.5339 8.34974C56.5276 8.34974 55.8801 8.86152 55.8118 9.71389H52.0099C52.2312 6.93459 54.4823 5.12695 57.7388 5.12695L57.737 5.12695ZM59.2541 13.4139V12.8684H56.9866C56.0149 12.8684 55.4521 13.3119 55.4521 14.0786C55.4521 14.8973 56.1169 15.3918 57.2252 15.3918C58.5383 15.3918 59.2541 14.7097 59.2541 13.4139Z" fill="black"/>
<path d="M69.4178 22.1606H65.3089L67.5081 16.8916L62.4094 5.4165H66.9454L69.5881 12.2537L72.0778 5.4165H76.1866L69.4178 22.1606Z" fill="black"/>
</g>
<path d="M111.998 1.47559V17.9762H109.956V1.47559H111.998Z" fill="black"/>
<path d="M102.879 1.47559C106.646 1.47559 108.347 3.22528 108.347 6.06853C108.347 8.79027 106.475 10.7587 102.709 10.7587H98.1401V17.9762H96.0745V1.47559H102.879ZM98.1401 9.03328H102.539C105.139 9.03328 106.281 7.84252 106.281 6.06853C106.281 4.22163 105.139 3.20098 102.539 3.20098H98.1401V9.03328Z" fill="black"/>
<path d="M79.8389 17.9762L86.3516 1.47559H88.563L94.8571 17.9762H92.6699L91.0175 13.4318H83.7514L82.026 17.9762H79.8389ZM84.3832 11.7064H90.3856L87.4452 3.5898L84.3832 11.7064Z" fill="black"/>
<defs>
<clipPath id="clip0_497_13407">
<rect width="76.1992" height="16.9891" fill="white" transform="translate(0 5.146)"/>
</clipPath>
</defs>
</svg>
